<?xml version="1.0" encoding="utf-8"?>
<!-- Generator: Adobe Illustrator 24.2.0, SVG Export Plug-In . SVG Version: 6.00 Build 0)  -->
<svg version="1.1" id="Layer_1" xmlns="http://www.w3.org/2000/svg" xmlns:xlink="http://www.w3.org/1999/xlink" x="0px" y="0px"
	 viewBox="0 0 83.59 9.95" style="enable-background:new 0 0 83.59 9.95;" xml:space="preserve">
<style type="text/css">
	.st0{fill:#FFFFFF;}
	.st1{fill:#33AED0;}
</style>
<g>
	<g>
		<path class="st0" d="M10.35,0.27L9.98,1.87H6.34L4.6,9.45H2.07L3.8,1.87H0.17l0.37-1.59H10.35z"/>
		<path class="st0" d="M12.13,2.67L11.2,6.75c-0.08,0.39-0.09,0.67-0.02,0.87c0.13,0.34,0.51,0.52,1.14,0.52
			c0.8,0,1.4-0.25,1.81-0.74c0.22-0.26,0.37-0.61,0.47-1.04l0.84-3.68h2.36l-1.55,6.79h-2.27l0.22-0.97
			c-0.02,0.02-0.1,0.08-0.2,0.19c-0.12,0.11-0.24,0.2-0.38,0.28C13.2,9.2,12.8,9.38,12.44,9.47c-0.36,0.09-0.77,0.14-1.24,0.14
			c-1.32,0-2.13-0.37-2.42-1.1c-0.17-0.4-0.16-0.98,0.01-1.76l0.93-4.09H12.13z"/>
		<path class="st0" d="M25.07,2.52c0.03,0,0.1,0.01,0.2,0.02l-0.41,1.79c-0.15-0.01-0.28-0.01-0.39-0.02
			c-0.11,0-0.21-0.01-0.28-0.01c-0.94,0-1.63,0.24-2.06,0.7c-0.24,0.26-0.42,0.66-0.55,1.21l-0.74,3.24H18.5l1.55-6.79h2.22L22,3.85
			c0.46-0.45,0.85-0.76,1.16-0.93c0.5-0.28,1.1-0.42,1.8-0.42C25,2.51,25.04,2.51,25.07,2.52z"/>
		<path class="st0" d="M29.6,8.15c-0.69,0-1.17-0.19-1.41-0.56c-0.25-0.38-0.32-0.86-0.18-1.44c0.11-0.49,0.28-0.89,0.52-1.19
			c0.45-0.59,1.1-0.88,1.94-0.88c0.84,0,1.34,0.3,1.52,0.89c0.09,0.31,0.09,0.7-0.03,1.19c-0.14,0.6-0.41,1.08-0.83,1.44
			C30.71,7.97,30.2,8.15,29.6,8.15z M31.48,2.53c-0.66,0-1.21,0.11-1.68,0.31c-0.39,0.17-0.78,0.41-1.15,0.73l0.75-3.3h-2.34
			l-2.1,9.18h2.31l0.19-0.86c0.24,0.33,0.48,0.57,0.71,0.7c0.4,0.22,0.97,0.33,1.71,0.33c1.17,0,2.17-0.34,2.99-1.04
			c0.82-0.69,1.34-1.56,1.59-2.61c0.23-1.01,0.09-1.84-0.43-2.48C33.51,2.85,32.66,2.53,31.48,2.53z"/>
		<path class="st0" d="M39.6,8.2c-0.68,0-1.17-0.18-1.46-0.55c-0.29-0.37-0.35-0.89-0.2-1.57c0.15-0.67,0.46-1.2,0.91-1.57
			c0.45-0.37,1.02-0.55,1.71-0.55c0.69,0,1.17,0.19,1.45,0.55c0.28,0.37,0.35,0.89,0.19,1.57c-0.16,0.68-0.46,1.2-0.92,1.57
			C40.85,8.02,40.28,8.2,39.6,8.2z M44.67,6.09c0.22-0.97,0.04-1.82-0.55-2.53c-0.59-0.71-1.66-1.07-3.19-1.07
			c-1.54,0-2.76,0.35-3.68,1.07c-0.92,0.71-1.49,1.56-1.71,2.53c-0.23,0.98-0.04,1.83,0.55,2.53c0.6,0.7,1.66,1.05,3.2,1.05
			c1.53,0,2.76-0.35,3.68-1.05C43.87,7.92,44.44,7.07,44.67,6.09z"/>
	</g>
	<path class="st1" d="M55.88,0.27h3.63l-2.1,9.18h-2.34l1.42-6.22c0.04-0.18,0.1-0.42,0.18-0.75c0.08-0.32,0.14-0.57,0.17-0.75
		l-4.06,7.71h-2.46L49.8,1.75c-0.04,0.18-0.1,0.43-0.16,0.75c-0.07,0.32-0.12,0.57-0.16,0.75l-1.42,6.22h-2.34l2.1-9.18h3.67
		l0.56,7.22L55.88,0.27z"/>
	<path class="st1" d="M66.2,2.37l0.69,3.61h-3.09L66.2,2.37z M58.88,9.45h2.62l1.25-1.88h4.45l0.36,1.88h2.74l-2.18-9.18h-2.83
		L58.88,9.45z"/>
	<path class="st1" d="M73.79,9.45h-2.95l4.96-4.68l-2.66-4.5h3.01l1.46,2.96l2.87-2.96h2.95L78.72,4.7l2.85,4.75H78.5l-1.58-3.12
		L73.79,9.45z"/>
</g>
</svg>
