<?xml version="1.0" encoding="utf-8"?>
<!-- Generator: Adobe Illustrator 24.2.0, SVG Export Plug-In . SVG Version: 6.00 Build 0)  -->
<svg version="1.1" id="Layer_1" xmlns="http://www.w3.org/2000/svg" xmlns:xlink="http://www.w3.org/1999/xlink" x="0px" y="0px"
	 viewBox="0 0 83.6 9.9" style="enable-background:new 0 0 83.6 9.9;" xml:space="preserve">
<style type="text/css">
	.st0{fill:#4D4D4F;}
	.st1{fill:#5BCAF4;}
</style>
<path class="st0" d="M10.4,0.3L10,1.9H6.3L4.6,9.4H2.1l1.7-7.6H0.2l0.4-1.6L10.4,0.3L10.4,0.3z"/>
<path class="st0" d="M12.1,2.7l-0.9,4.1c-0.1,0.4-0.1,0.7,0,0.9c0.1,0.3,0.5,0.5,1.1,0.5c0.8,0,1.4-0.3,1.8-0.7
	c0.2-0.3,0.4-0.6,0.5-1l0.8-3.7h2.4l-1.5,6.8H14l0.2-1c0,0-0.1,0.1-0.2,0.2c-0.1,0.1-0.2,0.2-0.4,0.3c-0.4,0.2-0.8,0.4-1.2,0.5
	c-0.4,0.1-0.8,0.1-1.2,0.1c-1.3,0-2.1-0.4-2.4-1.1c-0.2-0.4-0.2-1,0-1.8l0.9-4.1L12.1,2.7L12.1,2.7z"/>
<path class="st0" d="M25.1,2.5c0,0,0.1,0,0.2,0l-0.4,1.8c-0.1,0-0.3,0-0.4,0c-0.1,0-0.2,0-0.3,0c-0.9,0-1.6,0.2-2.1,0.7
	c-0.2,0.3-0.4,0.7-0.5,1.2l-0.7,3.2h-2.3L20,2.7h2.2L22,3.8c0.5-0.5,0.9-0.8,1.2-0.9c0.5-0.3,1.1-0.4,1.8-0.4
	C25,2.5,25,2.5,25.1,2.5z"/>
<path class="st0" d="M29.6,8.1c-0.7,0-1.2-0.2-1.4-0.6c-0.3-0.4-0.3-0.9-0.2-1.4c0.1-0.5,0.3-0.9,0.5-1.2c0.5-0.6,1.1-0.9,1.9-0.9
	S31.8,4.4,32,5c0.1,0.3,0.1,0.7,0,1.2c-0.1,0.6-0.4,1.1-0.8,1.4C30.7,8,30.2,8.1,29.6,8.1z M31.5,2.5c-0.7,0-1.2,0.1-1.7,0.3
	C29.4,3,29,3.2,28.6,3.6l0.8-3.3h-2.3L25,9.4h2.3l0.2-0.9c0.2,0.3,0.5,0.6,0.7,0.7c0.4,0.2,1,0.3,1.7,0.3c1.2,0,2.2-0.3,3-1
	C33.7,7.9,34.2,7,34.5,6c0.2-1,0.1-1.8-0.4-2.5C33.5,2.8,32.7,2.5,31.5,2.5z"/>
<path class="st0" d="M39.6,8.2c-0.7,0-1.2-0.2-1.5-0.6s-0.3-0.9-0.2-1.6c0.2-0.7,0.5-1.2,0.9-1.6s1-0.5,1.7-0.5s1.2,0.2,1.5,0.5
	c0.3,0.4,0.3,0.9,0.2,1.6s-0.5,1.2-0.9,1.6C40.8,8,40.3,8.2,39.6,8.2z M44.7,6.1c0.2-1,0-1.8-0.5-2.5s-1.7-1.1-3.2-1.1
	c-1.5,0-2.8,0.3-3.7,1.1c-0.9,0.7-1.5,1.6-1.7,2.5c-0.2,1,0,1.8,0.5,2.5c0.6,0.7,1.7,1.1,3.2,1.1c1.5,0,2.8-0.4,3.7-1.1
	C43.9,7.9,44.4,7.1,44.7,6.1z"/>
<path class="st1" d="M55.9,0.3h3.6l-2.1,9.2h-2.3l1.4-6.2c0-0.2,0.1-0.4,0.2-0.8c0.1-0.3,0.1-0.6,0.2-0.8l-4.1,7.7h-2.5l-0.5-7.7
	c0,0.2-0.1,0.4-0.2,0.8c-0.1,0.3-0.1,0.6-0.2,0.8l-1.4,6.2h-2.3l2.1-9.2h3.7L52,7.5L55.9,0.3z"/>
<path class="st1" d="M66.2,2.4L66.9,6h-3.1L66.2,2.4z M58.9,9.4h2.6l1.3-1.9h4.4l0.4,1.9h2.7l-2.2-9.2h-2.8L58.9,9.4z"/>
<path class="st1" d="M73.8,9.4h-2.9l5-4.7l-2.7-4.5h3l1.5,3l2.9-3h2.9l-4.7,4.4l2.8,4.8h-3.1l-1.6-3.1L73.8,9.4z"/>
</svg>
